<svg width="24" height="24" viewBox="0 0 24 24" fill="none" xmlns="http://www.w3.org/2000/svg">
<g id="icon/format" clip-path="url(#clip0_93_16660)">
<g id="Vector">
<path d="M17.25 19.5H6.75C6.35218 19.5 5.97076 19.342 5.68945 19.0607C5.40815 18.7794 5.25 18.3978 5.25 18V6C5.25 5.60218 5.40815 5.22064 5.68945 4.93934C5.97076 4.65803 6.35218 4.5 6.75 4.5H15L18.75 8.25V18C18.75 18.3978 18.5919 18.7794 18.3105 19.0607C18.0292 19.342 17.6478 19.5 17.25 19.5Z" fill="#1E6EFA"/>
<path d="M17.25 19.5H6.75C6.35218 19.5 5.97076 19.342 5.68945 19.0607C5.40815 18.7794 5.25 18.3978 5.25 18V6C5.25 5.60218 5.40815 5.22064 5.68945 4.93934C5.97076 4.65803 6.35218 4.5 6.75 4.5H15L18.75 8.25V18C18.75 18.3978 18.5919 18.7794 18.3105 19.0607C18.0292 19.342 17.6478 19.5 17.25 19.5Z" fill="white" fill-opacity="0.6"/>
</g>
<path id="Vector_2" fill-rule="evenodd" clip-rule="evenodd" d="M11.4706 14.1233C11.4437 14.1541 11.4187 14.1864 11.3956 14.2201C11.3715 14.2562 11.3521 14.2953 11.3379 14.3363C11.3193 14.373 11.3062 14.4122 11.2989 14.4526C11.2959 14.4955 11.2959 14.5386 11.2989 14.5816C11.2967 14.6663 11.3144 14.7503 11.3506 14.8268C11.3796 14.907 11.4259 14.9798 11.4862 15.04C11.5464 15.1003 11.6192 15.1466 11.6994 15.1756C11.7766 15.2097 11.8602 15.2274 11.9446 15.2274C12.0291 15.2274 12.1126 15.2097 12.1899 15.1756C12.27 15.1466 12.3428 15.1003 12.4031 15.04C12.4633 14.9798 12.5096 14.907 12.5386 14.8268C12.5967 14.687 12.6042 14.5312 12.5599 14.3864C12.5155 14.2416 12.422 14.1168 12.2955 14.0334C12.169 13.9501 12.0175 13.9135 11.8669 13.9299C11.7163 13.9463 11.5762 14.0147 11.4706 14.1233V14.1233ZM11.9289 8.7706C11.5887 8.77072 11.2545 8.86032 10.9599 9.0304C10.6653 9.20048 10.4206 9.44506 10.2504 9.7396C10.203 9.81308 10.1711 9.89541 10.1565 9.9816C10.1419 10.0678 10.145 10.156 10.1655 10.241C10.1861 10.326 10.2236 10.4059 10.276 10.4759C10.3283 10.5459 10.3943 10.6046 10.47 10.6483C10.5456 10.6921 10.6294 10.72 10.7162 10.7305C10.803 10.7409 10.891 10.7336 10.9749 10.709C11.0587 10.6844 11.1368 10.643 11.2042 10.5874C11.2716 10.5318 11.327 10.463 11.3671 10.3853C11.4235 10.2866 11.505 10.2044 11.6033 10.1471C11.7016 10.0898 11.8132 10.0595 11.927 10.0591C12.0407 10.0587 12.1526 10.0883 12.2512 10.1449C12.3499 10.2015 12.4319 10.2831 12.489 10.3815C12.5461 10.4799 12.5762 10.5916 12.5764 10.7054C12.5766 10.8192 12.5468 10.9309 12.49 11.0295C12.4332 11.1281 12.3514 11.2099 12.2529 11.2668C12.1544 11.3237 12.0426 11.3536 11.9289 11.3536V11.3536C11.7578 11.3546 11.594 11.423 11.4731 11.5441C11.3522 11.6651 11.2839 11.829 11.2831 12.0001V12.6451C11.2831 12.8164 11.3511 12.9806 11.4722 13.1017C11.5934 13.2228 11.7576 13.2908 11.9289 13.2908C12.1001 13.2908 12.2644 13.2228 12.3855 13.1017C12.5066 12.9806 12.5746 12.8164 12.5746 12.6451V12.5251C13.0017 12.3701 13.3607 12.07 13.5889 11.6771C13.8171 11.2843 13.9 10.8237 13.8231 10.376C13.7461 9.92823 13.5143 9.52175 13.168 9.22761C12.8218 8.93347 12.3832 8.77038 11.9289 8.76685V8.7706Z" fill="white"/>
</g>
<defs>
<clipPath id="clip0_93_16660">
<rect width="24" height="24" fill="white"/>
</clipPath>
</defs>
</svg>
