<svg width="24" height="24" viewBox="0 0 24 24" fill="none" xmlns="http://www.w3.org/2000/svg">
<g id="icon/format" clip-path="url(#clip0_93_16669)">
<g id="Group">
<path id="Vector" d="M18.75 5.25H5.25C4.83579 5.25 4.5 5.58579 4.5 6V18C4.5 18.4142 4.83579 18.75 5.25 18.75H18.75C19.1642 18.75 19.5 18.4142 19.5 18V6C19.5 5.58579 19.1642 5.25 18.75 5.25Z" fill="#28AFEA"/>
<path id="Vector_2" d="M9.83203 18.75L15.2557 13.3282C15.3247 13.2591 15.4067 13.2042 15.497 13.1668C15.5873 13.1294 15.6841 13.1101 15.7818 13.1101C15.8795 13.1101 15.9763 13.1294 16.0666 13.1668C16.1568 13.2042 16.2388 13.2591 16.3079 13.3282L19.4999 16.521V18.0082C19.4994 18.205 19.4209 18.3935 19.2817 18.5326C19.1425 18.6716 18.9538 18.7498 18.757 18.75H9.83203Z" fill="#5167D6"/>
<path id="Vector_3" d="M15.375 9C15.9963 9 16.5 8.49632 16.5 7.875C16.5 7.25368 15.9963 6.75 15.375 6.75C14.7537 6.75 14.25 7.25368 14.25 7.875C14.25 8.49632 14.7537 9 15.375 9Z" fill="#F2F2F2"/>
<path id="Vector_4" d="M5.24362 18.7497C5.0464 18.7497 4.85726 18.6714 4.7178 18.5319C4.57835 18.3925 4.5 18.2033 4.5 18.0061V12.8004L7.69275 9.60761C7.83214 9.46865 8.02093 9.39062 8.21775 9.39062C8.41457 9.39062 8.60336 9.46865 8.74275 9.60761L17.8875 18.7497H5.24362Z" fill="#124888"/>
</g>
</g>
<defs>
<clipPath id="clip0_93_16669">
<rect width="24" height="24" fill="white"/>
</clipPath>
</defs>
</svg>
