<svg width="24" height="24" viewBox="0 0 24 24" fill="none" xmlns="http://www.w3.org/2000/svg">
<g id="icon/format">
<g id="Group 85">
<path id="Vector" d="M19.0957 11.5802L16.542 10.0925V14.4403H19.3751V12.0662C19.3751 11.8659 19.2686 11.681 19.0957 11.5802Z" fill="#103262"/>
<path id="Vector_2" d="M7.75 6.5H11.5V9.875H7.75V6.5Z" fill="#0084D7"/>
<path id="Vector_3" d="M11.5 6.5H15.25V9.875H11.5V6.5Z" fill="#33AFEC"/>
<path id="Vector_4" d="M15.25 6.5H19V9.875H15.25V6.5Z" fill="#54DAFF"/>
<path id="Vector_5" d="M11.5 9.875H15.25V13.25H11.5V9.875Z" fill="#027AD4"/>
<path id="Vector_6" d="M11.5 13.25H15.25V16.625H11.5V13.25Z" fill="#0553A4"/>
<path id="Vector_7" d="M15.25 9.875H19V13.25H15.25V9.875Z" fill="#25A2E5"/>
<path id="Vector_8" d="M15.25 13.25H19V16.625H15.25V13.25Z" fill="#0262B8"/>
<path id="Vector_9" opacity="0.019" d="M7.75 16.6251H19V11.8394L13.7462 14.8394L7.75 11.8394V16.6251Z" fill="black"/>
<path id="Vector_10" opacity="0.038" d="M7.75 16.625H19V11.9285L13.7462 14.9285L7.75 11.9285V16.625Z" fill="black"/>
<path id="Vector_11" opacity="0.057" d="M7.75 16.6248H19V12.0176L13.7462 15.0176L7.75 12.0176V16.6248Z" fill="black"/>
<path id="Vector_12" opacity="0.076" d="M7.75 16.6249H19V12.1069L13.7462 15.1069L7.75 12.1069V16.6249Z" fill="black"/>
<path id="Vector_13" opacity="0.095" d="M7.75 16.625H19V12.1963L13.7462 15.1963L7.75 12.1963V16.625Z" fill="black"/>
<path id="Vector_14" opacity="0.114" d="M7.75 16.625H19V12.2859L13.7462 15.2859L7.75 12.2859V16.625Z" fill="black"/>
<path id="Vector_15" opacity="0.133" d="M7.75 16.6249H19V12.375L13.7462 15.375L7.75 12.375V16.6249Z" fill="black"/>
<path id="Vector_16" opacity="0.152" d="M7.75 16.625H19V12.4644L13.7462 15.4644L7.75 12.4644V16.625Z" fill="black"/>
<path id="Vector_17" opacity="0.171" d="M7.75 16.6251H19V12.5537L13.7462 15.5537L7.75 12.5537V16.6251Z" fill="black"/>
<path id="Vector_18" opacity="0.191" d="M7.75 16.6249H19V12.6428L13.7462 15.6428L7.75 12.6428V16.6249Z" fill="black"/>
<path id="Vector_19" opacity="0.209" d="M7.75 16.6251H19V12.7322L13.7462 15.7322L7.75 12.7322V16.6251Z" fill="black"/>
<path id="Vector_20" opacity="0.229" d="M7.75 16.6249H19V12.8213L13.7462 15.8213L7.75 12.8213V16.6249Z" fill="black"/>
<path id="Vector_21" opacity="0.248" d="M7.75 16.625H19V12.9106L13.7462 15.9106L7.75 12.9106V16.625Z" fill="black"/>
<path id="Vector_22" opacity="0.267" d="M7.75 16.6249H19V12.9998L13.7462 15.9998L7.75 12.9998V16.6249Z" fill="black"/>
<path id="Vector_23" opacity="0.286" d="M7.75 16.625H19V13.0891L13.7462 16.0891L7.75 13.0891V16.625Z" fill="black"/>
<path id="Vector_24" opacity="0.305" d="M7.75 16.625H19V13.1787L13.7462 16.1787L7.75 13.1787V16.625Z" fill="black"/>
<path id="Vector_25" opacity="0.324" d="M7.75 16.6248H19V13.2678L13.7462 16.2678L7.75 13.2678V16.6248Z" fill="black"/>
<path id="Vector_26" opacity="0.343" d="M7.75 16.6249H19V13.3572L13.7462 16.3572L7.75 13.3572V16.6249Z" fill="black"/>
<path id="Vector_27" opacity="0.362" d="M7.75 16.625H19V13.4465L13.7462 16.4465L7.75 13.4465V16.625Z" fill="black"/>
<path id="Vector_28" opacity="0.381" d="M7.75 16.6249H19V13.5356L13.7462 16.5356L7.75 13.5356V16.6249Z" fill="black"/>
<path id="Vector_29" opacity="0.4" d="M7.75 16.625H19V13.625L13.7462 16.625L7.75 13.625V16.625Z" fill="black"/>
<path id="Vector_30" d="M8.66567 18.5H18.6268C19.0408 18.5 19.3764 18.1667 19.3768 17.7523C19.3779 16.0569 19.3753 12.0662 19.3753 12.0662C19.3753 12.0662 19.3727 12.1494 18.7187 12.5207C18.0647 12.8919 8.4043 18.3373 8.4043 18.3373C8.4043 18.3373 8.49205 18.5 8.66567 18.5Z" fill="url(#paint0_linear_93_16670)"/>
<path id="Vector_31" d="M19 6.5H7.75V5.75C7.75 5.33562 8.08562 5 8.5 5H18.25C18.6644 5 19 5.33562 19 5.75V6.5Z" fill="url(#paint1_linear_93_16670)"/>
<path id="Vector_32" d="M7.75 12.125V17.75C7.75 18.1644 8.08562 18.5 8.5 18.5H14.125H18.6265C18.7997 18.5 18.9576 18.4392 19.0844 18.3406L7.75 12.125Z" fill="url(#paint2_linear_93_16670)"/>
<path id="Vector_33" opacity="0.05" d="M10.8696 7.625H7.75V16.625H10.8696C11.632 16.625 12.25 16.007 12.25 15.2446V9.00537C12.25 8.243 11.632 7.625 10.8696 7.625Z" fill="black"/>
<path id="Vector_34" opacity="0.07" d="M10.8299 16.2499H7.75V7.74976H10.8299C11.4764 7.74976 12.0002 8.27363 12.0002 8.92013V15.0795C11.9999 15.726 11.476 16.2499 10.8299 16.2499Z" fill="black"/>
<path id="Vector_35" opacity="0.09" d="M10.7897 15.8749H7.75V7.875H10.7897C11.32 7.875 11.7497 8.30475 11.7497 8.835V14.9149C11.7501 15.4451 11.32 15.8749 10.7897 15.8749Z" fill="black"/>
<path id="Vector_36" d="M10.75 15.5H4.75C4.33562 15.5 4 15.1644 4 14.75V8.75C4 8.33562 4.33562 8 4.75 8H10.75C11.1644 8 11.5 8.33562 11.5 8.75V14.75C11.5 15.1644 11.1644 15.5 10.75 15.5Z" fill="url(#paint3_linear_93_16670)"/>
<path id="Vector_37" d="M7.75023 9.75903C6.58361 9.75903 5.88086 10.6504 5.88086 11.7499C5.88086 12.8494 6.58098 13.7408 7.75023 13.7408C8.91986 13.7408 9.61961 12.8494 9.61961 11.7503C9.61961 10.6504 8.91686 9.75903 7.75023 9.75903ZM7.75023 13.0688C7.08836 13.0688 6.69273 12.4785 6.69273 11.7503C6.69273 11.022 7.09023 10.4318 7.75023 10.4318C8.41023 10.4318 8.80811 11.0224 8.80811 11.7503C8.80811 12.4782 8.41173 13.0688 7.75023 13.0688Z" fill="white"/>
</g>
</g>
<defs>
<linearGradient id="paint0_linear_93_16670" x1="17.4722" y1="11.9589" x2="14.9825" y2="16.259" gradientUnits="userSpaceOnUse">
<stop stop-color="#31ABEC"/>
<stop offset="1" stop-color="#1582D5"/>
</linearGradient>
<linearGradient id="paint1_linear_93_16670" x1="7.99937" y1="5.372" x2="18.3569" y2="6.15275" gradientUnits="userSpaceOnUse">
<stop offset="0.042" stop-color="#076DB4"/>
<stop offset="0.85" stop-color="#0461AF"/>
</linearGradient>
<linearGradient id="paint2_linear_93_16670" x1="13.4324" y1="15.2067" x2="11.7392" y2="18.1625" gradientUnits="userSpaceOnUse">
<stop stop-color="#33ACEE"/>
<stop offset="1" stop-color="#1B8EDF"/>
</linearGradient>
<linearGradient id="paint3_linear_93_16670" x1="4.19875" y1="8.19875" x2="11.2787" y2="15.2787" gradientUnits="userSpaceOnUse">
<stop stop-color="#1784D8"/>
<stop offset="1" stop-color="#0864C5"/>
</linearGradient>
</defs>
</svg>
