<svg width="24" height="24" viewBox="0 0 24 24" fill="none" xmlns="http://www.w3.org/2000/svg">
<g id="icon/format" clip-path="url(#clip0_93_16664)">
<g id="Group">
<path id="Vector" d="M20.6302 14.5621C20.0932 13.9861 19.0192 13.6621 17.4847 13.6621C16.5449 13.666 15.6075 13.7559 14.6842 13.9306C14.0525 13.3028 13.4754 12.6223 12.9592 11.8966C12.5688 11.3521 12.2162 10.7815 11.9039 10.1888C12.4271 8.72566 12.7304 7.19298 12.8039 5.64082C12.8039 4.39357 12.3629 3.09082 11.0587 3.09082C10.8559 3.09853 10.6583 3.15703 10.484 3.26094C10.3097 3.36486 10.1643 3.51086 10.0612 3.68557C9.4859 4.74082 9.7349 7.04407 10.7519 9.31057C10.3687 10.4431 9.98465 11.5366 9.4859 12.7456C9.06365 13.7626 8.5649 14.8373 8.0474 15.7966C5.13215 16.9861 3.25265 18.3683 3.08015 19.4431C3.04354 19.6368 3.05592 19.8366 3.11617 20.0243C3.17642 20.212 3.28263 20.3816 3.42515 20.5178C3.73655 20.7795 4.13067 20.9222 4.5374 20.9206C6.47465 20.9206 8.5079 17.7346 9.54365 15.7966C10.3297 15.5281 11.1359 15.2783 11.9219 15.0466C12.7547 14.8082 13.6 14.6159 14.4539 14.4706C16.4872 16.3321 18.2902 16.6388 19.1917 16.6388C20.3039 16.6388 20.7067 16.1783 20.8417 15.7943C20.9305 15.5797 20.9596 15.3451 20.9258 15.1153C20.892 14.8855 20.7966 14.6692 20.6497 14.4893L20.6302 14.5643V14.5621ZM19.5959 15.3496C19.5318 15.5669 19.3922 15.7542 19.2024 15.8779C19.0126 16.0017 18.7849 16.0536 18.5602 16.0246C18.4113 16.0243 18.2631 16.0048 18.1192 15.9668C17.0376 15.6771 16.0391 15.1377 15.2039 14.3918C15.9392 14.2693 16.683 14.2051 17.4284 14.1998C17.879 14.1789 18.3305 14.2177 18.7709 14.3153C18.8949 14.3242 19.0157 14.3587 19.1256 14.4166C19.2356 14.4745 19.3324 14.5546 19.4099 14.6518C19.4874 14.7489 19.5439 14.8611 19.576 14.9812C19.608 15.1013 19.6148 15.2267 19.5959 15.3496V15.3496ZM13.9762 14.0828C13.2857 14.2173 12.5569 14.3901 11.7899 14.6011C11.1764 14.7736 10.5434 14.9468 9.9104 15.1771C10.2554 14.5021 10.5434 13.8526 10.8104 13.2391C11.1367 12.4711 11.3857 11.7038 11.6542 10.9748C11.9227 11.4353 12.2107 11.8958 12.4979 12.2993C12.9779 12.9308 13.4767 13.5451 13.9754 14.0828H13.9762ZM10.5037 4.00732C10.5515 3.91449 10.6226 3.83564 10.71 3.77846C10.7974 3.72128 10.8982 3.68773 11.0024 3.68107C11.5589 3.68107 11.6542 4.33357 11.6542 4.85182C11.5742 6.11123 11.3359 7.35555 10.9447 8.55532C10.1774 6.44482 10.1197 4.69807 10.5037 4.00732ZM7.60715 16.6156C6.26465 18.8798 4.9604 20.3003 4.17365 20.3003C4.02899 20.2969 3.88869 20.2501 3.7709 20.1661C3.69325 20.0938 3.63498 20.0032 3.60144 19.9026C3.56789 19.8019 3.56014 19.6945 3.5789 19.5901C3.7334 18.7846 5.2484 17.6521 7.60715 16.6156Z" fill="#EB1D25"/>
</g>
</g>
<defs>
<clipPath id="clip0_93_16664">
<rect width="24" height="24" fill="white"/>
</clipPath>
</defs>
</svg>
