<svg width="24" height="24" viewBox="0 0 24 24" fill="none" xmlns="http://www.w3.org/2000/svg">
<g id="icon/format" clip-path="url(#clip0_93_16665)">
<g id="Group">
<path id="Vector" d="M12.556 5.25003C11.6601 5.24745 10.7725 5.42202 9.94434 5.76368C9.11613 6.10534 8.36364 6.60736 7.73013 7.24087C7.09662 7.87437 6.5946 8.62687 6.25294 9.45508C5.91127 10.2833 5.73671 11.1709 5.73929 12.0668L14.911 14.4248L12.556 5.25003Z" fill="#ED6C47"/>
<path id="Vector_2" d="M12.4102 5.25C14.2164 5.25534 15.9472 5.97525 17.2244 7.25248C18.5016 8.52971 19.2216 10.2605 19.2269 12.0668L15.8189 13.8667L12.4102 12.0668V5.25Z" fill="#FF8F6B"/>
<path id="Vector_3" d="M5.73926 11.9333C5.73926 13.722 6.44979 15.4373 7.71453 16.7021C8.97928 17.9668 10.6946 18.6774 12.4833 18.6774C14.2719 18.6774 15.9872 17.9668 17.252 16.7021C18.5167 15.4373 19.2273 13.722 19.2273 11.9333H5.73926Z" fill="#D35230"/>
<path id="Vector_4" opacity="0.5" d="M13.796 16.023V8.95794C13.7999 8.85919 13.7834 8.76071 13.7474 8.66868C13.7113 8.57665 13.6567 8.49304 13.5868 8.42316C13.5169 8.35328 13.4333 8.29863 13.3413 8.26262C13.2493 8.22661 13.1508 8.21003 13.052 8.21394H6.85552C6.13591 9.32132 5.74887 10.6118 5.74027 11.9324C5.73703 12.8642 5.92827 13.7864 6.30175 14.64C6.67523 15.4937 7.22274 16.26 7.90927 16.8899H12.929C13.1541 16.8747 13.3661 16.7784 13.5256 16.6188C13.6852 16.4593 13.7815 16.2473 13.7968 16.0222L13.796 16.023Z" fill="black"/>
<path id="Vector_5" opacity="0.1" d="M13.796 16.023V8.95794C13.7999 8.85919 13.7834 8.76071 13.7474 8.66868C13.7113 8.57665 13.6567 8.49304 13.5868 8.42316C13.5169 8.35328 13.4333 8.29863 13.3413 8.26262C13.2493 8.22661 13.1508 8.21003 13.052 8.21394H6.85552C6.13591 9.32132 5.74887 10.6118 5.74027 11.9324C5.73703 12.8642 5.92827 13.7864 6.30175 14.64C6.67523 15.4937 7.22274 16.26 7.90927 16.8899H12.929C13.1541 16.8747 13.3661 16.7784 13.5256 16.6188C13.6852 16.4593 13.7815 16.2473 13.7968 16.0222L13.796 16.023Z" fill="black"/>
<path id="Vector_6" d="M12.4324 16.2713H5.24436C5.14643 16.276 5.04858 16.2604 4.95698 16.2255C4.86538 16.1905 4.78202 16.137 4.71213 16.0682C4.64224 15.9994 4.58734 15.9169 4.5509 15.8259C4.51445 15.7349 4.49724 15.6373 4.50036 15.5393V8.46158C4.49724 8.36358 4.51445 8.266 4.5509 8.17498C4.58734 8.08397 4.64224 8.00149 4.71213 7.93272C4.78202 7.86396 4.86538 7.81041 4.95698 7.77545C5.04858 7.74049 5.14643 7.72487 5.24436 7.72958H12.4946C12.5879 7.73157 12.6797 7.75225 12.7649 7.79037C12.85 7.8285 12.9266 7.8833 12.9901 7.95155C13.0537 8.0198 13.1029 8.10009 13.1349 8.1877C13.1669 8.2753 13.181 8.36843 13.1764 8.46158V15.6008C13.1728 15.6942 13.1507 15.7859 13.1111 15.8705C13.0716 15.9551 13.0155 16.031 12.9461 16.0936C12.8767 16.1561 12.7955 16.2042 12.7073 16.2348C12.6191 16.2655 12.5256 16.2782 12.4324 16.2721V16.2713Z" fill="#C43E1C"/>
<path id="Vector_7" d="M9.05233 9.52139C9.53647 9.4855 10.0181 9.61797 10.4158 9.89639C10.5856 10.0395 10.7191 10.2209 10.8052 10.4255C10.8914 10.6302 10.9279 10.8524 10.9116 11.0739C10.9253 11.4213 10.8392 11.7654 10.6633 12.0654C10.4964 12.3148 10.2591 12.509 9.98158 12.6234C9.66662 12.7503 9.32963 12.8135 8.99009 12.8094H8.06084V14.4826H7.06934V9.52514L9.05233 9.52139ZM8.06084 12.0001H8.86934C9.00373 12.0118 9.13908 11.9957 9.26704 11.953C9.39499 11.9103 9.51285 11.8419 9.61333 11.7519C9.70737 11.6673 9.77919 11.5608 9.82248 11.442C9.86576 11.3231 9.8792 11.1954 9.86159 11.0701C9.86159 10.5121 9.55184 10.2646 8.93234 10.2646H8.06458V12.0001H8.06084Z" fill="white"/>
</g>
</g>
<defs>
<clipPath id="clip0_93_16665">
<rect width="24" height="24" fill="white"/>
</clipPath>
</defs>
</svg>
