<svg width="24" height="24" viewBox="0 0 24 24" fill="none" xmlns="http://www.w3.org/2000/svg">
<g id="icon/format" clip-path="url(#clip0_93_16661)">
<path id="Vector" d="M18 19.5H7.5C7.10218 19.5 6.72076 19.342 6.43945 19.0607C6.15815 18.7794 6 18.3978 6 18V6C6 5.60218 6.15815 5.22064 6.43945 4.93934C6.72076 4.65803 7.10218 4.5 7.5 4.5H15.75L19.5 8.25V18C19.5 18.3978 19.3419 18.7794 19.0605 19.0607C18.7792 19.342 18.3978 19.5 18 19.5Z" fill="url(#paint0_linear_93_16661)"/>
<g id="Rectangle 253" style="mix-blend-mode:darken">
<path d="M6 10C6 9.44772 6.44772 9 7 9H15C15.5523 9 16 9.44772 16 10V16C16 16.5523 15.5523 17 15 17H6V10Z" fill="black" fill-opacity="0.1"/>
</g>
<rect id="Rectangle 252" x="4" y="8" width="11" height="8" rx="1" fill="#48C8FF"/>
<g id="txt">
<path d="M6.2 12.874V11.53H6.98V10.9H6.2V10H5.48V10.9H5V11.53H5.48V12.922C5.48 13.726 5.912 13.96 6.506 13.96C6.68 13.96 6.872 13.924 6.98 13.888V13.246C6.878 13.282 6.752 13.3 6.65 13.3C6.338 13.3 6.2 13.168 6.2 12.874Z" fill="white"/>
<path d="M8.05789 13.9L8.74189 12.88L9.49789 13.9H10.3379L9.20389 12.37L10.2779 10.9H9.43789L8.80789 11.83L8.11789 10.9H7.27789L8.35189 12.352L7.21789 13.9H8.05789Z" fill="white"/>
<path d="M11.6551 12.874V11.53H12.4351V10.9H11.6551V10H10.9351V10.9H10.4551V11.53H10.9351V12.922C10.9351 13.726 11.3671 13.96 11.9611 13.96C12.1351 13.96 12.3271 13.924 12.4351 13.888V13.246C12.3331 13.282 12.2071 13.3 12.1051 13.3C11.7931 13.3 11.6551 13.168 11.6551 12.874Z" fill="white"/>
</g>
</g>
<defs>
<linearGradient id="paint0_linear_93_16661" x1="12.75" y1="4.5" x2="12.75" y2="19.5" gradientUnits="userSpaceOnUse">
<stop stop-color="#CBF3FF"/>
<stop offset="1" stop-color="#97CDFF"/>
</linearGradient>
<clipPath id="clip0_93_16661">
<rect width="24" height="24" fill="white"/>
</clipPath>
</defs>
</svg>
