<svg width="24" height="24" viewBox="0 0 24 24" fill="none" xmlns="http://www.w3.org/2000/svg">
<g id="icon/format" clip-path="url(#clip0_93_16666)">
<g id="Group">
<path id="Vector" d="M5.9248 5.23413H18.0748V18.7341H5.9248V5.23413Z" fill="#8095FF"/>
<path id="Vector_2" d="M6.71875 6.3336C6.71875 6.44574 6.75201 6.55537 6.81431 6.64861C6.87661 6.74185 6.96516 6.81453 7.06877 6.85744C7.17237 6.90036 7.28638 6.91159 7.39637 6.88971C7.50635 6.86783 7.60738 6.81383 7.68668 6.73453C7.76598 6.65524 7.81997 6.55421 7.84185 6.44422C7.86373 6.33423 7.8525 6.22023 7.80959 6.11662C7.76667 6.01301 7.694 5.92446 7.60076 5.86216C7.50752 5.79986 7.39789 5.7666 7.28575 5.7666C7.21126 5.7665 7.13749 5.7811 7.06865 5.80956C6.99982 5.83802 6.93727 5.87978 6.8846 5.93245C6.83193 5.98512 6.79017 6.04767 6.76171 6.11651C6.73325 6.18534 6.71865 6.25911 6.71875 6.3336Z" fill="white"/>
<path id="Vector_3" d="M6.71875 8.57773C6.7186 8.6899 6.75173 8.79959 6.81394 8.89293C6.87615 8.98627 6.96466 9.05907 7.06825 9.1021C7.17185 9.14513 7.28587 9.15646 7.39591 9.13467C7.50595 9.11287 7.60705 9.05893 7.68642 8.97967C7.76579 8.9004 7.81987 8.79937 7.84181 8.68937C7.86374 8.57936 7.85255 8.46531 7.80966 8.36166C7.76677 8.25801 7.6941 8.16941 7.60084 8.10708C7.50758 8.04474 7.39792 8.01147 7.28575 8.01147C7.1355 8.01147 6.9914 8.07111 6.88509 8.17728C6.77878 8.28345 6.71895 8.42748 6.71875 8.57773V8.57773Z" fill="white"/>
<path id="Vector_4" d="M6.71875 10.826C6.7186 10.9382 6.75173 11.0479 6.81394 11.1412C6.87615 11.2346 6.96466 11.3074 7.06825 11.3504C7.17185 11.3934 7.28587 11.4048 7.39591 11.383C7.50595 11.3612 7.60705 11.3072 7.68642 11.228C7.76579 11.1487 7.81987 11.0477 7.84181 10.9376C7.86374 10.8276 7.85255 10.7136 7.80966 10.61C7.76677 10.5063 7.6941 10.4177 7.60084 10.3554C7.50758 10.293 7.39792 10.2598 7.28575 10.2598C7.21132 10.2597 7.13761 10.2742 7.06883 10.3027C7.00004 10.3311 6.93752 10.3727 6.88486 10.4253C6.8322 10.4779 6.79043 10.5404 6.76193 10.6092C6.73343 10.6779 6.71875 10.7516 6.71875 10.826V10.826Z" fill="white"/>
<path id="Vector_5" d="M6.71875 13.0746C6.7186 13.1867 6.75173 13.2964 6.81394 13.3898C6.87615 13.4831 6.96466 13.5559 7.06825 13.5989C7.17185 13.642 7.28587 13.6533 7.39591 13.6315C7.50595 13.6097 7.60705 13.5558 7.68642 13.4765C7.76579 13.3973 7.81987 13.2962 7.84181 13.1862C7.86374 13.0762 7.85255 12.9621 7.80966 12.8585C7.76677 12.7548 7.6941 12.6663 7.60084 12.6039C7.50758 12.5416 7.39792 12.5083 7.28575 12.5083C7.1355 12.5083 6.9914 12.5679 6.88509 12.6741C6.77878 12.7803 6.71895 12.9243 6.71875 13.0746V13.0746Z" fill="white"/>
<path id="Vector_6" d="M6.71875 15.3231C6.7186 15.4353 6.75173 15.545 6.81394 15.6383C6.87615 15.7316 6.96466 15.8044 7.06825 15.8475C7.17185 15.8905 7.28587 15.9018 7.39591 15.8801C7.50595 15.8583 7.60705 15.8043 7.68642 15.7251C7.76579 15.6458 7.81987 15.5447 7.84181 15.4347C7.86374 15.3247 7.85255 15.2107 7.80966 15.107C7.76677 15.0034 7.6941 14.9148 7.60084 14.8525C7.50758 14.7901 7.39792 14.7568 7.28575 14.7568C7.1355 14.7568 6.9914 14.8165 6.88509 14.9226C6.77878 15.0288 6.71895 15.1728 6.71875 15.3231V15.3231Z" fill="white"/>
<path id="Vector_7" d="M6.71875 17.5672C6.71875 17.6794 6.75201 17.789 6.81431 17.8823C6.87661 17.9755 6.96516 18.0482 7.06877 18.0911C7.17237 18.134 7.28638 18.1452 7.39637 18.1234C7.50635 18.1015 7.60738 18.0475 7.68668 17.9682C7.76598 17.8889 7.81997 17.7879 7.84185 17.6779C7.86373 17.5679 7.8525 17.4539 7.80959 17.3503C7.76667 17.2466 7.694 17.1581 7.60076 17.0958C7.50751 17.0335 7.39789 17.0002 7.28575 17.0002C7.13537 17.0002 6.99115 17.06 6.88482 17.1663C6.77848 17.2727 6.71875 17.4169 6.71875 17.5672V17.5672Z" fill="white"/>
<path id="Vector_8" d="M16.3757 6.3336C16.3759 6.44556 16.4092 6.55497 16.4715 6.64799C16.5339 6.74101 16.6223 6.81347 16.7258 6.85621C16.8293 6.89895 16.9432 6.91006 17.0529 6.88813C17.1627 6.86619 17.2636 6.81221 17.3427 6.73299C17.4218 6.65377 17.4756 6.55287 17.4974 6.44304C17.5192 6.33322 17.508 6.21941 17.4651 6.11598C17.4222 6.01256 17.3496 5.92417 17.2565 5.86198C17.1634 5.7998 17.0539 5.7666 16.942 5.7666C16.7916 5.7666 16.6474 5.82634 16.5411 5.93267C16.4347 6.03901 16.375 6.18322 16.375 6.3336H16.3757Z" fill="white"/>
<path id="Vector_9" d="M16.3757 8.57773C16.3757 8.68972 16.409 8.7992 16.4712 8.89231C16.5334 8.98543 16.6219 9.05801 16.7253 9.10087C16.8288 9.14373 16.9426 9.15495 17.0525 9.1331C17.1623 9.11125 17.2632 9.05731 17.3424 8.97812C17.4216 8.89893 17.4755 8.79804 17.4974 8.6882C17.5192 8.57836 17.508 8.4645 17.4652 8.36103C17.4223 8.25757 17.3497 8.16913 17.2566 8.10691C17.1635 8.04469 17.054 8.01147 16.942 8.01147C16.7917 8.01147 16.6477 8.07111 16.5414 8.17728C16.435 8.28345 16.3752 8.42748 16.375 8.57773H16.3757Z" fill="white"/>
<path id="Vector_10" d="M16.3757 10.826C16.3757 10.938 16.409 11.0475 16.4712 11.1406C16.5334 11.2337 16.6219 11.3063 16.7253 11.3492C16.8288 11.392 16.9426 11.4032 17.0525 11.3814C17.1623 11.3595 17.2632 11.3056 17.3424 11.2264C17.4216 11.1472 17.4755 11.0463 17.4974 10.9365C17.5192 10.8266 17.508 10.7128 17.4652 10.6093C17.4223 10.5058 17.3497 10.4174 17.2566 10.3552C17.1635 10.293 17.054 10.2598 16.942 10.2598C16.8676 10.2597 16.7939 10.2742 16.7251 10.3027C16.6563 10.3311 16.5938 10.3727 16.5411 10.4253C16.4885 10.4779 16.4467 10.5404 16.4182 10.6092C16.3897 10.6779 16.375 10.7516 16.375 10.826H16.3757Z" fill="white"/>
<path id="Vector_11" d="M16.3757 13.0746C16.3757 13.1865 16.409 13.296 16.4712 13.3891C16.5334 13.4822 16.6219 13.5548 16.7253 13.5977C16.8288 13.6405 16.9426 13.6518 17.0525 13.6299C17.1623 13.6081 17.2632 13.5542 17.3424 13.475C17.4216 13.3958 17.4755 13.2949 17.4974 13.185C17.5192 13.0752 17.508 12.9613 17.4652 12.8578C17.4223 12.7544 17.3497 12.666 17.2566 12.6037C17.1635 12.5415 17.054 12.5083 16.942 12.5083C16.7917 12.5083 16.6477 12.5679 16.5414 12.6741C16.435 12.7803 16.3752 12.9243 16.375 13.0746H16.3757Z" fill="white"/>
<path id="Vector_12" d="M16.3757 15.3231C16.3757 15.4351 16.409 15.5446 16.4712 15.6377C16.5334 15.7308 16.6219 15.8034 16.7253 15.8463C16.8288 15.8891 16.9426 15.9003 17.0525 15.8785C17.1623 15.8566 17.2632 15.8027 17.3424 15.7235C17.4216 15.6443 17.4755 15.5434 17.4974 15.4336C17.5192 15.3238 17.508 15.2099 17.4652 15.1064C17.4223 15.003 17.3497 14.9145 17.2566 14.8523C17.1635 14.7901 17.054 14.7568 16.942 14.7568C16.7917 14.7568 16.6477 14.8165 16.5414 14.9226C16.435 15.0288 16.3752 15.1728 16.375 15.3231H16.3757Z" fill="white"/>
<path id="Vector_13" d="M16.3757 17.5672C16.3759 17.6792 16.4092 17.7886 16.4715 17.8816C16.5339 17.9746 16.6223 18.0471 16.7258 18.0899C16.8293 18.1326 16.9432 18.1437 17.0529 18.1218C17.1627 18.0998 17.2636 18.0459 17.3427 17.9666C17.4218 17.8874 17.4756 17.7865 17.4974 17.6767C17.5192 17.5669 17.508 17.453 17.4651 17.3496C17.4222 17.2462 17.3496 17.1578 17.2565 17.0956C17.1634 17.0335 17.0539 17.0002 16.942 17.0002C16.7916 17.0002 16.6474 17.06 16.5411 17.1663C16.4347 17.2727 16.375 17.4169 16.375 17.5672H16.3757Z" fill="white"/>
<path id="Vector_14" d="M13.9238 11.8919L10.9238 9.82944C10.8892 9.80553 10.8485 9.79179 10.8065 9.7898C10.7645 9.78781 10.7228 9.79767 10.686 9.81821C10.6492 9.83825 10.6182 9.86767 10.5964 9.90349C10.5745 9.93931 10.5625 9.98024 10.5615 10.0222V14.1359C10.5625 14.1779 10.5745 14.2189 10.5964 14.2547C10.6182 14.2905 10.6492 14.3199 10.686 14.3399C10.7228 14.3605 10.7645 14.3703 10.8065 14.3683C10.8485 14.3663 10.8892 14.3526 10.9238 14.3287L13.9238 12.255C13.9555 12.2366 13.9817 12.2101 13.9997 12.1782C14.0176 12.1462 14.0266 12.1101 14.0258 12.0734C14.0228 12.0376 14.0122 12.0029 13.9946 11.9716C13.977 11.9402 13.9528 11.9131 13.9238 11.8919V11.8919Z" fill="white"/>
</g>
</g>
<defs>
<clipPath id="clip0_93_16666">
<rect width="24" height="24" fill="white"/>
</clipPath>
</defs>
</svg>
