<svg width="24" height="24" viewBox="0 0 24 24" fill="none" xmlns="http://www.w3.org/2000/svg">
<g id="icon/format" clip-path="url(#clip0_93_16671)">
<g id="Group">
<path id="Vector" d="M19.3638 8.92959V5.86284C19.3687 5.78099 19.3562 5.69902 19.3271 5.62236C19.298 5.5457 19.253 5.47608 19.195 5.4181C19.137 5.36012 19.0674 5.31509 18.9907 5.286C18.9141 5.25691 18.8321 5.24441 18.7503 5.24934H8.93876C8.85691 5.24441 8.77496 5.25691 8.6983 5.286C8.62163 5.31509 8.552 5.36012 8.49402 5.4181C8.43604 5.47608 8.39102 5.5457 8.36193 5.62236C8.33284 5.69902 8.32034 5.78099 8.32526 5.86284V8.92883L13.8445 10.1551L19.3638 8.92883V8.92959Z" fill="#41A5EE"/>
<path id="Vector_2" d="M19.3637 8.93262H8.3252V11.9986L14.1512 13.2249L19.3637 11.9986V8.93262Z" fill="#2B7CD3"/>
<path id="Vector_3" d="M19.3637 12.0015H8.3252V15.0675L13.8445 15.9877L19.3637 15.0675V12.0015Z" fill="#185ABD"/>
<path id="Vector_4" d="M19.3638 15.0706H8.32531V18.1366C8.32027 18.2184 8.33268 18.3004 8.36173 18.3772C8.39078 18.4539 8.43579 18.5236 8.49379 18.5816C8.5518 18.6396 8.62149 18.6846 8.69821 18.7136C8.77493 18.7427 8.85693 18.7551 8.93881 18.7501H18.7503C18.8322 18.7551 18.9142 18.7427 18.9909 18.7136C19.0677 18.6846 19.1373 18.6396 19.1953 18.5816C19.2533 18.5236 19.2983 18.4539 19.3274 18.3772C19.3564 18.3004 19.3688 18.2184 19.3638 18.1366V15.0706Z" fill="#103F91"/>
<path id="Vector_5" opacity="0.5" d="M13.1028 8.32427H8.31934V16.9095H12.9798C13.2026 16.8944 13.4124 16.7991 13.5703 16.6412C13.7282 16.4833 13.8235 16.2736 13.8386 16.0508V9.06001C13.8424 8.96237 13.826 8.865 13.7903 8.77402C13.7547 8.68304 13.7006 8.6004 13.6315 8.53131C13.5624 8.46222 13.4798 8.40817 13.3888 8.37254C13.2978 8.33691 13.2005 8.32047 13.1028 8.32427V8.32427Z" fill="black"/>
<path id="Vector_6" d="M12.4858 16.2969H5.37209C5.27432 16.3008 5.17682 16.2843 5.08573 16.2485C4.99464 16.2128 4.91194 16.1586 4.84282 16.0894C4.77371 16.0201 4.71968 15.9373 4.68414 15.8461C4.64861 15.755 4.63233 15.6575 4.63634 15.5597V8.43919C4.63244 8.34149 4.64879 8.24404 4.68437 8.15296C4.71996 8.06189 4.774 7.97917 4.84311 7.90999C4.91221 7.84082 4.99488 7.7867 5.08591 7.75102C5.17695 7.71535 5.27438 7.69888 5.37209 7.70268H12.5473C12.6404 7.70544 12.732 7.72683 12.8167 7.76559C12.9014 7.80436 12.9775 7.85971 13.0404 7.92837C13.1033 7.99704 13.1518 8.07762 13.1831 8.16536C13.2143 8.2531 13.2277 8.34621 13.2223 8.43919V15.6212C13.2197 15.7143 13.1984 15.8058 13.1597 15.8905C13.121 15.9752 13.0657 16.0513 12.9971 16.1142C12.9285 16.1771 12.848 16.2257 12.7603 16.2569C12.6726 16.2882 12.5795 16.3015 12.4866 16.2962L12.4858 16.2969Z" fill="#185ABD"/>
<path id="Vector_7" d="M10.8911 14.4526H9.9716L8.9291 11.0776L7.8866 14.4526H6.96636L5.98535 9.54688H6.8441L7.51911 12.9811L8.56011 9.67212H9.29585L10.2769 12.9834L11.0126 9.54912H11.8714L10.8904 14.4549L10.8911 14.4526Z" fill="white"/>
</g>
</g>
<defs>
<clipPath id="clip0_93_16671">
<rect width="24" height="24" fill="white"/>
</clipPath>
</defs>
</svg>
