<?xml version="1.0" encoding="UTF-8"?>
<svg width="123px" height="113px" viewBox="0 0 123 113" version="1.1" xmlns="http://www.w3.org/2000/svg" xmlns:xlink="http://www.w3.org/1999/xlink">
    <title>xls</title>
    <g id="控件" stroke="none" stroke-width="1" fill="none" fill-rule="evenodd">
        <g id="xls" fill-rule="nonzero">
            <path d="M122.729965,30.67747 L122.729965,5.12122001 C122.81292,3.74153805 122.300979,2.39239552 121.323634,1.41505122 C120.34629,0.437706922 118.997147,-0.0742344811 117.617465,0.00872000698 L35.8549655,0.00872000698 C34.4752835,-0.0742344811 33.126141,0.437706922 32.1487967,1.41505122 C31.1714524,2.39239552 30.659511,3.74153805 30.7424655,5.12122001 L30.7424655,30.67122 L76.7362155,40.88997 L122.729965,30.67122 L122.729965,30.67747 Z" id="路径" fill="#41A5EE"></path>
            <polygon id="路径" fill="#2B7CD3" points="122.729965 30.70247 30.7424655 30.70247 30.7424655 56.25247 79.2924655 66.47122 122.729965 56.25247"></polygon>
            <polygon id="路径" fill="#185ABD" points="122.729965 56.27747 30.7424655 56.27747 30.7424655 81.82747 76.7362155 89.49622 122.729965 81.82747"></polygon>
            <path d="M122.729965,81.85247 L30.7424655,81.85247 L30.7424655,107.40247 C30.6574523,108.7827 31.1687291,110.133067 32.1465488,111.110887 C33.1243684,112.088706 34.4747353,112.599983 35.8549655,112.51497 L117.617465,112.51497 C118.997696,112.599983 120.348063,112.088706 121.325882,111.110887 C122.303702,110.133067 122.814979,108.7827 122.729965,107.40247 L122.729965,81.85247 Z" id="路径" fill="#103F91"></path>
            <path d="M70.5612155,25.63372 L30.6987155,25.63372 L30.6987155,97.17747 L69.5362155,97.17747 C73.3756352,96.9174228 76.4324183,93.8606398 76.6924655,90.02122 L76.6924655,31.76497 C76.7564177,30.1200888 76.1310093,28.5231471 74.9670238,27.3591616 C73.8030384,26.1951762 72.2060967,25.5697678 70.5612155,25.63372 L70.5612155,25.63372 Z" id="路径" fill="#000000" opacity="0.5"></path>
            <path d="M65.4174655,92.07122 L6.13621546,92.07122 C4.48907469,92.1353999 2.89005696,91.5083173 1.7256563,90.3415428 C0.561255646,89.1747682 -0.062568925,87.5744766 0.00496545765,85.92747 L0.00496545765,26.58997 C-0.0607765849,24.9440257 0.563840562,23.3454097 1.7280334,22.1800301 C2.89222624,21.0146505 4.49020507,20.388405 6.13621546,20.45247 L65.9299655,20.45247 C67.4973331,20.4988257 68.9793154,21.1771564 70.0387808,22.3331509 C71.0982462,23.4891454 71.6451092,25.0245102 71.5549655,26.58997 L71.5549655,86.43997 C71.5102668,88.0067818 70.8333141,89.4887946 69.6783023,90.5484384 C68.5232905,91.6080823 66.9885697,92.1551277 65.4237155,92.06497 L65.4174655,92.07122 Z" id="路径" fill="#185ABD"></path>
            <polygon id="路径" fill="#FFFFFF" points="52.1299655 76.70247 44.4674655 76.70247 35.7799655 48.57747 27.0924655 76.70247 19.4237155 76.70247 11.2487155 35.82122 18.4049655 35.82122 24.0299655 64.43997 32.7049655 36.86497 38.8362155 36.86497 47.0112155 64.45872 53.1424655 35.83997 60.2987155 35.83997 52.1237155 76.72122"></polygon>
            <path d="M81.7737155,0.014970007 L35.6987155,0.014970007 C34.317377,-0.0679729456 32.9666523,0.444630758 31.9881392,1.4231438 C31.0096262,2.40165683 30.4970225,3.75238153 30.5799655,5.13372001 L30.5799655,30.75872 L81.7737155,56.38372 L102.248715,64.06497 L122.723715,56.38372 L122.723715,30.75872 L81.7674655,0.039970007 L81.7737155,0.014970007 Z" id="路径" fill="#21A366"></path>
            <polygon id="路径" fill="#107C41" points="30.6612155 30.68372 81.8549655 30.68372 81.8549655 56.30872 30.6612155 56.30872"></polygon>
            <path d="M122.736215,5.13372001 L122.736215,30.75872 L81.7799655,30.75872 L81.7799655,0.014970007 L117.611215,0.014970007 C120.359343,0.199276099 122.548556,2.38581907 122.736215,5.13372001 Z" id="路径" fill="#33C481"></path>
            <path d="M81.7799655,56.20247 L30.5862155,56.20247 L30.5862155,107.39622 C30.5032725,108.777558 31.0158762,110.128283 31.9943892,111.106796 C32.9729023,112.085309 34.323627,112.597913 35.7049655,112.51497 L117.611215,112.51497 C118.992554,112.597913 120.343279,112.085309 121.321792,111.106796 C122.300305,110.128283 122.812908,108.777558 122.729965,107.39622 L122.729965,81.77122 L81.7799655,56.20247 Z" id="路径" fill="#185C37"></path>
            <path d="M70.5987155,25.48372 L30.6674655,25.48372 L30.6674655,97.15247 L69.5737155,97.15247 C73.4200228,96.8923674 76.4823628,93.8300274 76.7424655,89.98372 L76.7424655,31.62122 C76.8065257,29.9735526 76.17962,28.3739872 75.0130698,27.2086236 C73.8465195,26.0432601 72.2463169,25.4179828 70.5987155,25.48372 L70.5987155,25.48372 Z" id="路径" fill="#000000" opacity="0.5"></path>
            <path d="M65.5299655,92.03372 L6.14871546,92.03372 C4.50336862,92.0992352 2.90523663,91.475632 1.73910067,90.3130549 C0.572964718,89.1504779 -0.0555203301,87.5542594 0.00496545765,85.90872 L0.00496545765,26.62747 C-0.057306275,24.9808663 0.570389708,23.3829749 1.73673262,22.219005 C2.90307552,21.0550352 4.50224196,20.4305948 6.14871546,20.49622 L66.0424655,20.49622 C67.6086847,20.5426379 69.0896561,21.2201064 70.1489333,22.3747185 C71.2082105,23.5293306 71.7558595,25.0630583 71.6674655,26.62747 L71.6674655,86.42122 C71.6211739,87.9897374 70.941981,89.4727322 69.7846033,90.5323863 C68.6272256,91.5920403 67.0902227,92.1381159 65.5237155,92.04622 L65.5299655,92.03372 Z" id="路径" fill="#107C41"></path>
            <path d="M17.4112155,76.73997 L30.7237155,56.26497 L18.4362155,35.78997 L28.1612155,35.78997 L34.8174655,48.58997 C35.8424655,50.12747 35.8424655,51.15247 36.3549655,51.65872 L37.8924655,48.58997 L45.0612155,35.78997 L54.2737155,35.78997 L41.9924655,56.25872 L54.7924655,76.73372 L44.5549655,76.73372 L36.8737155,62.40247 C36.8737155,61.88997 36.3612155,61.37747 35.8487155,60.35247 C35.8487155,60.86497 35.3362155,61.37747 34.8237155,62.40247 L27.1424655,76.73372 L17.4112155,76.73997 Z" id="路径" fill="#FFFFFF"></path>
            <polygon id="路径" fill="#107C41" points="81.7799655 56.24622 122.736215 56.24622 122.736215 81.87122 81.7799655 81.87122"></polygon>
        </g>
    </g>
</svg>